<svg width="45" height="45" fill="none" xmlns="http://www.w3.org/2000/svg"><path fill-rule="evenodd" clip-rule="evenodd" d="M22.5 0C10.069 0 0 10.069 0 22.5c0 9.956 6.44 18.366 15.384 21.347 1.125.197 1.547-.478 1.547-1.069 0-.534-.028-2.306-.028-4.19-5.653 1.04-7.115-1.379-7.565-2.644-.254-.647-1.35-2.644-2.307-3.178-.787-.422-1.912-1.463-.028-1.491 1.772-.028 3.038 1.631 3.46 2.306 2.025 3.403 5.259 2.447 6.553 1.856.197-1.462.787-2.446 1.434-3.009-5.006-.562-10.237-2.503-10.237-11.11 0-2.446.871-4.471 2.306-6.046-.225-.563-1.013-2.869.225-5.963 0 0 1.884-.59 6.187 2.307a20.88 20.88 0 015.625-.76c1.913 0 3.825.253 5.625.76 4.303-2.925 6.188-2.307 6.188-2.307 1.237 3.094.45 5.4.225 5.963 1.434 1.575 2.306 3.572 2.306 6.047 0 8.634-5.26 10.547-10.266 11.11.816.702 1.52 2.052 1.52 4.162 0 3.009-.029 5.428-.029 6.187 0 .59.422 1.294 1.547 1.069A22.538 22.538 0 0045 22.5C45 10.069 34.931 0 22.5 0z" fill="#E4DBDB"/></svg>