<svg width="64" height="74" viewBox="0 0 64 74" fill="none" xmlns="http://www.w3.org/2000/svg">
<g filter="url(#filter0_dd_132_13)">
<rect x="7" width="50" height="65" rx="3" fill="#AC3B61"/>
<path d="M15.0371 20.2617C14.4186 19.6432 13.9336 18.8978 13.582 18.0254C13.237 17.1465 13.0645 16.2188 13.0645 15.2422C13.0645 14.2591 13.1621 13.3932 13.3574 12.6445C13.5527 11.8958 13.8229 11.2188 14.168 10.6133C14.513 10.0013 14.9232 9.46094 15.3984 8.99219C15.8737 8.52344 16.3913 8.12956 16.9512 7.81055C18.084 7.16602 19.3112 6.84375 20.6328 6.84375C22.638 6.84375 24.2721 7.48177 25.5352 8.75781C26.8568 10.0859 27.5176 11.834 27.5176 14.002C27.5176 15.6361 27.1497 17.1042 26.4141 18.4062C25.7435 19.5911 24.819 20.5221 23.6406 21.1992C22.5078 21.8568 21.3652 22.1855 20.2129 22.1855C19.0671 22.1855 18.071 22.0195 17.2246 21.6875C16.3848 21.349 15.6556 20.8737 15.0371 20.2617ZM16.6777 10.0469C16.2936 10.5872 16.0104 11.2415 15.8281 12.0098C15.6458 12.778 15.5547 13.6048 15.5547 14.4902C15.5547 15.3691 15.6393 16.1764 15.8086 16.9121C15.9779 17.6413 16.248 18.2826 16.6191 18.8359C17.4264 20.0404 18.6243 20.6426 20.2129 20.6426C21.8145 20.6426 23.0286 20.1185 23.8555 19.0703C24.6497 18.0482 25.0469 16.5931 25.0469 14.7051C25.0469 11.8079 24.1875 9.86458 22.4688 8.875C21.8568 8.52995 21.1309 8.35742 20.291 8.35742C19.4512 8.35742 18.735 8.50391 18.1426 8.79688C17.5501 9.08984 17.0618 9.50651 16.6777 10.0469ZM31.3457 22C30.3496 22 29.8516 21.7721 29.8516 21.3164C29.8516 21.0755 29.9004 20.8932 29.998 20.7695C30.1543 20.8216 30.3008 20.8477 30.4375 20.8477C31.0039 20.8477 31.2969 20.5059 31.3164 19.8223V7.5957C31.3164 7.13997 31.2708 6.85026 31.1797 6.72656C31.0299 6.51823 30.7891 6.41406 30.457 6.41406C30.3073 6.41406 30.1608 6.43034 30.0176 6.46289C29.8809 6.48893 29.7832 6.48893 29.7246 6.46289C29.6725 6.43034 29.6302 6.38802 29.5977 6.33594C29.4674 6.12109 29.6302 5.84766 30.0859 5.51562C30.8021 4.98828 31.5085 4.72461 32.2051 4.72461C32.9473 4.72461 33.3639 5.125 33.4551 5.92578C33.4811 6.16667 33.4941 6.42057 33.4941 6.6875V19.8613C33.5137 20.3691 33.6992 20.6816 34.0508 20.7988C34.1549 20.8314 34.2754 20.8607 34.4121 20.8867C34.5553 20.9128 34.6855 20.9453 34.8027 20.9844C34.9199 21.0169 35.0111 21.056 35.0762 21.1016C35.1868 21.1862 35.2422 21.3229 35.2422 21.5117C35.2422 21.7396 35.1901 21.9186 35.0859 22.0488C34.9557 22.0163 34.7474 22 34.4609 22H31.3457Z" fill="white"/>
<path d="M29.6133 58.7129L27.7324 53.3984C27.5918 53 27.4688 52.8008 27.3633 52.8008C27.3164 52.8008 27.2617 52.8066 27.1992 52.8184C27.1367 52.8301 27.0859 52.8086 27.0469 52.7539C27.0078 52.6992 26.9883 52.6309 26.9883 52.5488C26.9883 52.4668 27.0215 52.3828 27.0879 52.2969C27.1543 52.2109 27.2383 52.1367 27.3398 52.0742C27.5664 51.9297 27.7637 51.8574 27.9316 51.8574C28.1035 51.8574 28.2305 51.8613 28.3125 51.8691C28.3945 51.877 28.4727 51.9043 28.5469 51.9512C28.6953 52.0488 28.8203 52.2695 28.9219 52.6133L30.4277 57.7109C30.7988 56.6172 31.0391 55.8945 31.1484 55.543C31.5352 54.2383 31.793 53.2734 31.9219 52.6484C31.9492 52.5078 32.0781 52.3887 32.3086 52.291C32.4883 52.2168 32.6406 52.1797 32.7656 52.1797C32.8906 52.1797 32.9727 52.1895 33.0117 52.209C33.0547 52.2246 33.0859 52.2559 33.1055 52.3027C33.1523 52.3965 33.1875 52.5098 33.2109 52.6426L34.7695 57.752C35.0625 57.0371 35.2617 56.5352 35.3672 56.2461L35.6719 55.3906C35.9961 54.457 36.1582 53.7285 36.1582 53.2051C36.1582 52.834 35.9785 52.627 35.6191 52.584C35.5801 52.5215 35.5605 52.457 35.5605 52.3906C35.5605 52.3203 35.5938 52.252 35.6602 52.1855C35.7266 52.1152 35.8125 52.0547 35.918 52.0039C36.1289 51.9062 36.3418 51.8574 36.5566 51.8574C36.7754 51.8574 36.9434 51.8691 37.0605 51.8926C37.1777 51.916 37.2715 51.957 37.3418 52.0156C37.4746 52.1328 37.541 52.3086 37.541 52.543C37.541 52.7734 37.5156 53.0078 37.4648 53.2461C37.4141 53.4805 37.3457 53.7383 37.2598 54.0195C37.1738 54.3008 37.0742 54.5957 36.9609 54.9043C36.5352 56.0371 36.2246 56.8145 36.0293 57.2363L35.6016 58.127C35.5156 58.2988 35.4492 58.4238 35.4023 58.502L35.2559 58.7305C35.0918 58.9844 34.8984 59.1113 34.6758 59.1113C34.4336 59.1113 34.2344 59.0469 34.0781 58.918C34.0156 58.8633 33.9707 58.7949 33.9434 58.7129L32.4902 54.5176C32.0996 55.7402 31.8516 56.5059 31.7461 56.8145C31.4258 57.7129 31.2324 58.2305 31.166 58.3672C31.0996 58.5 31.041 58.6094 30.9902 58.6953C30.9395 58.7773 30.8828 58.8477 30.8203 58.9062C30.6797 59.043 30.5254 59.1113 30.3574 59.1113C30.123 59.1113 29.9219 59.043 29.7539 58.9062C29.6914 58.8555 29.6445 58.791 29.6133 58.7129ZM38.5898 55.8477C38.5898 55.375 38.6387 54.9551 38.7363 54.5879C38.834 54.2207 38.9648 53.8926 39.1289 53.6035C39.2969 53.3105 39.4922 53.0547 39.7148 52.8359C39.9414 52.6172 40.1836 52.4355 40.4414 52.291C40.9492 52.002 41.4492 51.8574 41.9414 51.8574C42.4336 51.8574 42.8281 51.9453 43.125 52.1211C43.4219 52.293 43.6641 52.5234 43.8516 52.8125C44.1992 53.3633 44.373 54.0957 44.373 55.0098C44.373 55.3496 44.2305 55.5234 43.9453 55.5312L39.8555 55.6191C39.8789 56.4668 40.0977 57.0938 40.5117 57.5C40.8633 57.8438 41.3184 58.0156 41.877 58.0156C42.709 58.0156 43.3848 57.8418 43.9043 57.4941C43.9395 57.4941 43.9824 57.5234 44.0332 57.582C44.1309 57.6992 44.1797 57.8008 44.1797 57.8867C44.1797 58.0742 43.9453 58.3145 43.4766 58.6074C42.9375 58.9434 42.3086 59.1113 41.5898 59.1113C40.6523 59.1113 39.916 58.8125 39.3809 58.2148C38.8535 57.6289 38.5898 56.8398 38.5898 55.8477ZM39.8906 54.8633C41.0156 54.8086 42.0449 54.7363 42.9785 54.6465C43.0215 53.4043 42.5918 52.7832 41.6895 52.7832C41.1855 52.7832 40.7734 52.9785 40.4531 53.3691C40.1602 53.7285 39.9727 54.2266 39.8906 54.8633ZM47.6016 52.6777C48.1875 52.1309 48.8418 51.8574 49.5645 51.8574C50.3613 51.8574 51.0098 52.1328 51.5098 52.6836C52.0566 53.2773 52.3301 54.1055 52.3301 55.168C52.3301 56.3633 51.9551 57.332 51.2051 58.0742C50.498 58.7656 49.6621 59.1113 48.6973 59.1113C48.0684 59.1113 47.4414 58.9688 46.8164 58.6836C46.6133 58.5938 46.4395 58.4902 46.2949 58.373V50.3574C46.2949 50.0879 46.2676 49.9141 46.2129 49.8359C46.1309 49.7109 45.9863 49.6484 45.7793 49.6484C45.6855 49.6484 45.5977 49.6582 45.5156 49.6777C45.4336 49.6934 45.377 49.6934 45.3457 49.6777C45.3145 49.6582 45.2871 49.6328 45.2637 49.6016C45.1816 49.4766 45.2793 49.3125 45.5566 49.1094C45.9863 48.793 46.4102 48.6348 46.8281 48.6348C47.2734 48.6348 47.5234 48.875 47.5781 49.3555C47.5938 49.5 47.6016 49.6523 47.6016 49.8125V52.6777ZM47.6016 53.6094V57.7168C47.9688 58.0215 48.4082 58.1738 48.9199 58.1738C49.5254 58.1738 50.0176 57.9492 50.3965 57.5C50.7988 57.0234 51 56.3691 51 55.5371C51 54.6621 50.8223 54.0039 50.4668 53.5625C50.1504 53.1602 49.707 52.959 49.1367 52.959C48.5703 52.959 48.0586 53.1758 47.6016 53.6094Z" fill="white"/>
<path d="M35.2617 38.9629C35.2617 40.4277 35.0664 41.4401 34.6758 42H24.0215C23.5072 42 23.1523 41.8698 22.957 41.6094C22.8919 41.5182 22.8594 41.4173 22.8594 41.3066C22.8594 41.0592 22.9115 40.8704 23.0156 40.7402C23.237 40.8053 23.5267 40.8379 23.8848 40.8379C24.6855 40.8379 25.0859 40.3464 25.0859 39.3633V29.334C25.0859 28.8848 24.8971 28.582 24.5195 28.4258C24.4089 28.3737 24.2721 28.3249 24.1094 28.2793L23.6211 28.1523C23.3086 28.0742 23.1133 27.9798 23.0352 27.8691C22.9635 27.752 22.9277 27.6348 22.9277 27.5176C22.9277 27.2702 22.9798 27.0814 23.084 26.9512C23.2337 27.0033 23.556 27.0293 24.0508 27.0293H28.3086C28.6471 27.0293 28.9173 27.0846 29.1191 27.1953C29.321 27.2995 29.4219 27.4948 29.4219 27.7812C29.4219 28.0026 29.373 28.1686 29.2754 28.2793C29.028 28.2142 28.7904 28.1816 28.5625 28.1816C28.3411 28.1816 28.1654 28.2077 28.0352 28.2598C27.9115 28.3053 27.8008 28.3867 27.7031 28.5039C27.5078 28.7513 27.4036 29.1582 27.3906 29.7246V39.5977C27.4036 40.0534 27.5371 40.3594 27.791 40.5156C28.0059 40.6523 28.3997 40.7207 28.9727 40.7207L29.7051 40.7109L30.5449 40.7012C31.9642 40.7012 32.8919 40.3854 33.3281 39.7539C33.543 39.4414 33.6862 39.0508 33.7578 38.582C33.8359 38.1068 33.9043 37.5566 33.9629 36.9316C34.0671 36.8665 34.207 36.834 34.3828 36.834C34.7148 36.834 34.9395 36.873 35.0566 36.9512C35.1934 37.485 35.2617 38.1556 35.2617 38.9629ZM43.9629 40.7598C43.0124 41.7103 41.8633 42.1855 40.5156 42.1855C39.474 42.1855 38.6406 41.8861 38.0156 41.2871C37.3841 40.6816 37.0684 39.8971 37.0684 38.9336C37.0684 37.7357 37.6022 36.8372 38.6699 36.2383C39.6335 35.6914 40.9909 35.418 42.7422 35.418H43.9629C43.9694 35.1706 43.9727 34.9297 43.9727 34.6953V33.9629C43.9727 33.0905 43.8457 32.4753 43.5918 32.1172C43.3053 31.7135 42.8171 31.5117 42.127 31.5117C40.5449 31.5117 39.7311 32.0781 39.6855 33.2109C39.679 33.3867 39.6823 33.5332 39.6953 33.6504C39.5651 33.7546 39.3438 33.8066 39.0312 33.8066C38.7253 33.8066 38.5007 33.7708 38.3574 33.6992C38.2207 33.6276 38.1003 33.5299 37.9961 33.4062C37.7747 33.1523 37.6641 32.8301 37.6641 32.4395C37.6641 32.0423 37.778 31.6973 38.0059 31.4043C38.2402 31.1048 38.556 30.8607 38.9531 30.6719C39.7279 30.2878 40.6426 30.0957 41.6973 30.0957C42.752 30.0957 43.543 30.1999 44.0703 30.4082C44.6042 30.61 45.0273 30.8802 45.3398 31.2188C45.8932 31.8177 46.1699 32.6217 46.1699 33.6309L46.0723 38.3184C46.0723 39.1712 46.1113 39.7116 46.1895 39.9395C46.2741 40.1673 46.3717 40.3203 46.4824 40.3984C46.5996 40.4766 46.7396 40.5156 46.9023 40.5156C47.0716 40.5156 47.2083 40.4896 47.3125 40.4375L47.5859 40.3105C47.6771 40.278 47.7552 40.3171 47.8203 40.4277C47.8919 40.5319 47.9277 40.6263 47.9277 40.7109C47.9277 40.7891 47.8919 40.8932 47.8203 41.0234C47.7552 41.1536 47.6283 41.2936 47.4395 41.4434C47.2572 41.5866 47.0488 41.7135 46.8145 41.8242C45.5189 42.4362 44.6367 42.293 44.168 41.3945C44.0703 41.2188 44.002 41.0072 43.9629 40.7598ZM43.9336 39.4805C43.9336 38.543 43.9401 37.612 43.9531 36.6875C42.599 36.7396 41.6777 36.8275 41.1895 36.9512C40.7077 37.0684 40.3594 37.1823 40.1445 37.293C39.9297 37.4036 39.7604 37.5339 39.6367 37.6836C39.4349 37.931 39.334 38.3053 39.334 38.8066C39.334 39.3014 39.5098 39.6986 39.8613 39.998C40.2129 40.291 40.7174 40.4375 41.375 40.4375C42.306 40.4375 43.1589 40.1185 43.9336 39.4805Z" fill="white"/>
</g>
<defs>
<filter id="filter0_dd_132_13" x="0" y="0" width="64" height="74" filterUnits="userSpaceOnUse" color-interpolation-filters="sRGB">
<feFlood flood-opacity="0" result="BackgroundImageFix"/>
<feColorMatrix in="SourceAlpha" type="matrix" values="0 0 0 0 0 0 0 0 0 0 0 0 0 0 0 0 0 0 127 0" result="hardAlpha"/>
<feOffset dx="-5" dy="7"/>
<feGaussianBlur stdDeviation="1"/>
<feColorMatrix type="matrix" values="0 0 0 0 0.254902 0 0 0 0 0.317647 0 0 0 0 0.407843 0 0 0 0.32 0"/>
<feBlend mode="normal" in2="BackgroundImageFix" result="effect1_dropShadow_132_13"/>
<feColorMatrix in="SourceAlpha" type="matrix" values="0 0 0 0 0 0 0 0 0 0 0 0 0 0 0 0 0 0 127 0" result="hardAlpha"/>
<feOffset dx="4" dy="3"/>
<feGaussianBlur stdDeviation="1.5"/>
<feColorMatrix type="matrix" values="0 0 0 0 0.882353 0 0 0 0 0.858824 0 0 0 0 0.866667 0 0 0 0.87 0"/>
<feBlend mode="normal" in2="effect1_dropShadow_132_13" result="effect2_dropShadow_132_13"/>
<feBlend mode="normal" in="SourceGraphic" in2="effect2_dropShadow_132_13" result="shape"/>
</filter>
</defs>
</svg>
