<svg width="38" height="38" fill="none" xmlns="http://www.w3.org/2000/svg"><path fill-rule="evenodd" clip-rule="evenodd" d="M19 0C8.502 0 0 8.502 0 19c0 8.407 5.439 15.509 12.991 18.026.95.166 1.306-.404 1.306-.902 0-.452-.023-1.948-.023-3.539-4.774.879-6.009-1.164-6.389-2.233-.214-.546-1.14-2.232-1.947-2.683-.665-.357-1.615-1.235-.024-1.259 1.496-.024 2.565 1.378 2.921 1.948 1.71 2.873 4.441 2.066 5.534 1.567.166-1.235.665-2.066 1.211-2.541-4.228-.475-8.645-2.114-8.645-9.381 0-2.067.736-3.777 1.948-5.107-.19-.475-.855-2.422.19-5.035 0 0 1.59-.498 5.224 1.948a17.63 17.63 0 014.75-.641c1.616 0 3.23.213 4.75.64 3.634-2.47 5.226-1.947 5.226-1.947 1.044 2.613.38 4.56.19 5.035 1.21 1.33 1.947 3.016 1.947 5.107 0 7.29-4.441 8.906-8.669 9.38.689.595 1.283 1.735 1.283 3.516 0 2.541-.024 4.584-.024 5.225 0 .498.356 1.092 1.306.902A19.032 19.032 0 0038 19C38 8.502 29.497 0 19 0z" fill="#43394C"/></svg>